/* XPM */
static char *_4435ae4272d4134a19bd6825c199a72[] = {
/* columns rows colors chars-per-pixel */
"64 64 137 2 ",
"   c #0B4BA4",
".  c #1954AB",
"X  c #165AAD",
"o  c #1D5BAE",
"O  c #1F5DB0",
"+  c #215BB0",
"@  c #0468AA",
"#  c #0A6AAC",
"$  c #136FAE",
"%  c #0E6FB0",
"&  c #1863B2",
"*  c #176EB3",
"=  c #1474B3",
"-  c #1A76B4",
";  c #1C78B5",
":  c #1D7AB9",
">  c #2276AF",
",  c #2379AE",
"<  c #2466B3",
"1  c #2A64B2",
"2  c #2B6AB5",
"3  c #346BB6",
"4  c #386DB5",
"5  c #3C6FB8",
"6  c #2276B1",
"7  c #267AB2",
"8  c #2A7DB5",
"9  c #2272B9",
"0  c #227EBC",
"q  c #2C7FBA",
"w  c #3A70B7",
"e  c #3571B8",
"r  c #3D72B9",
"t  c #377EBA",
"y  c #3B7CBC",
"u  c #4072B9",
"i  c #417CBE",
"p  c #2381A7",
"a  c #2380AA",
"s  c #2C80B7",
"d  c #2581BF",
"f  c #2E81B9",
"g  c #3482B6",
"h  c #3385BB",
"j  c #3C82BE",
"k  c #3688BE",
"l  c #3989BF",
"z  c #2782C0",
"x  c #2A85C2",
"c  c #2F8AC6",
"v  c #3F84C1",
"b  c #358BC4",
"n  c #3C8CC2",
"m  c #348DCA",
"M  c #3D91C4",
"N  c #3B92CC",
"B  c #3E96D1",
"V  c #4285C1",
"C  c #4C82C1",
"Z  c #438CC5",
"A  c #498CC7",
"S  c #4B8EC9",
"D  c #5683C2",
"F  c #598AC5",
"G  c #4291C6",
"H  c #4B90C6",
"J  c #4694C9",
"K  c #4996CB",
"L  c #4699CA",
"P  c #4D9ACD",
"I  c #5599C7",
"U  c #5293CB",
"Y  c #509CCF",
"T  c #4097D3",
"R  c #4299D4",
"E  c #4F9DD0",
"W  c #529ED1",
"Q  c #6793CA",
"!  c #6B94CB",
"~  c #6E99CD",
"^  c #729BCD",
"/  c #799BCF",
"(  c #59A0CF",
")  c #4FA1D1",
"_  c #56A1D4",
"`  c #5AA4D6",
"'  c #59A8D7",
"]  c #5CA6D8",
"[  c #5EA9DA",
"{  c #65A3CE",
"}  c #6DA8CF",
"|  c #64A6D1",
" . c #6FADD7",
".. c #62A1DB",
"X. c #63ACDD",
"o. c #6AABDD",
"O. c #78A0D0",
"+. c #74ADD3",
"@. c #78AFD5",
"#. c #65B2DF",
"$. c #7BB1D6",
"%. c #7DB3D9",
"&. c #5CB4E1",
"*. c #67AFE0",
"=. c #68AFE0",
"-. c #70ACE2",
";. c #66B1E0",
":. c #6AB1E2",
">. c #82A8D4",
",. c #8DAFD7",
"<. c #82B7DA",
"1. c #85B9DC",
"2. c #8DBEDE",
"3. c #93BDDE",
"4. c #A2BEDF",
"5. c #A9BCDE",
"6. c #90BFE1",
"7. c #97C1DF",
"8. c #9BC3DD",
"9. c #8FC0E0",
"0. c #94C3E3",
"q. c #99C6E4",
"w. c #99C8E7",
"e. c #9FCBE9",
"r. c #A0C6E2",
"t. c #AEC6E3",
"y. c #BBD4EB",
"u. c #C2CDE4",
"i. c #C3DBEC",
"p. c #D6E2F0",
"a. c #DCE6F3",
"s. c #DDEBF4",
"d. c #E0EDF5",
"f. c #EEF6FA",
"g. c #F7F9FC",
"h. c #FFFFFF",
"j. c None",
/* pixels */
"j.j.j.j.j.j.j.j.j.j.j.j.j.j.j.j.j.j.j.j.j.j.j.j.j.j.j.[ [ [ [ *.[ *.X.X.*.j.j.j.j.j.j.j.j.j.j.j.j.j.j.j.j.j.j.j.j.j.j.j.j.j.j.j.",
"j.j.j.j.j.j.j.j.j.j.j.j.j.j.j.j.j.j.j.j.j.j.` ` ` ` ` ] ] ] [ [ [ [ X.X.X.X.*.*.;.=.j.j.j.j.j.j.j.j.j.j.j.j.j.j.j.j.j.j.j.j.j.j.",
"j.j.j.j.j.j.j.j.j.j.j.j.j.j.j.j.j.j.j.j.` W ` _ ` ` ] ] ] ] [ [ [ *.[ X.X.X.X.*.*.*.*.:.j.j.j.j.j.j.j.j.j.j.j.j.j.j.j.j.j.j.j.j.",
"j.j.j.j.j.j.j.j.j.j.j.j.j.j.j.j.j.j.W W _ ` _ ` ` ` ` ` ] ] ] [ [ [ [ *.X.X.X.X.X.*.*.:.:.:.j.j.j.j.j.j.j.j.j.j.j.j.j.j.j.j.j.j.",
"j.j.j.j.j.j.j.j.j.j.j.j.j.j.j.j.Y Y W W W ` W ` ` ` ` ` ` ` ] ] ] X.] X.X.X.X.X.X.*.*.;.:.=.:.:.j.j.j.j.j.j.j.j.j.j.j.j.j.j.j.j.",
"j.j.j.j.j.j.j.j.j.j.j.j.j.j.Y Y E Y Y W W _ W ` _ _ ` ` ` ` ] ] ] ] ] X.[ X.X.X.X.*.X.*.X.:.:.:.:.:.j.j.j.j.j.j.j.j.j.j.j.j.j.j.",
"j.j.j.j.j.j.j.j.j.j.j.j.j.P Y P E Y W W W W _ W _ ` W ` ` ` ` ` ] ] X.] ] X.[ X.X.X.X.:.;.*.;.:.:.:.:.j.j.j.j.j.j.j.j.j.j.j.j.j.",
"j.j.j.j.j.j.j.j.j.j.j.K P K P Y Y Y W W W W W W _ _ ` ` ` ` ` ] ] ] ] [ ] [ X.[ X.X.X.X.=.X.*.:.:.:.:.:.j.j.j.j.j.j.j.j.j.j.j.j.",
"j.j.j.j.j.j.j.j.j.j.K K K P K P Y P E Y E E W W W _ _ _ _ ` ` ` ` ` ] ] ] X.] X.X.X.X.X.*.X.*.;.:.:.:.:.:.:.j.j.j.j.j.j.j.j.j.j.",
"j.j.j.j.j.j.j.j.j.H K K K P K P P P Y Y E Y Y W W _ W _ ` _ _ ` ` ] ] ] ` ] X.] ] X.X.X.X.X.*.X.:.:.:.:.:.:.:.j.j.j.j.j.j.j.j.j.",
"j.j.j.j.j.j.j.j.L J K K K K K P K E E P E E E Y W _ _ _ _ _ _ ` ` ` ` ] ] X.] ] X.] [ X.X.X.X.*.;.;.:.:.:.:.:.:.j.j.j.j.j.j.j.j.",
"j.j.j.j.j.j.j.j.G G G K K K K K K P P P Y Y E Y W W W _ W _ _ ` ` ` ` ` ` ] ] X.] X.] X.X.X.X.*.X.X.:.:.:.:.:.:.j.j.j.j.j.j.j.j.",
"j.j.j.j.j.j.j.J J J J J L K K K K P P P K Y E E W W W W W _ _ _ _ ` ` ` ] ] ` ] ] X.] X.X.X.X.X.#.o.*.=.:.:.:.:.:.j.j.j.j.j.j.j.",
"j.j.j.j.j.j.G G M Z M J L G K K P K K P Y Y Y Y W W W W ( W ` _ ` ` ` ] ` ] ` X.` X.X.X.X.X.*.[ X.#.*.X.X.:.:.:.:.-.j.j.j.j.j.j.",
"j.j.j.j.j.Z M Z Z J J J J J L K K K K K P Y b x c c m m m m m m m N m N N B B B B B T T B R ` *.X.X.X.X.;.:.:.:.:.:.:.j.j.j.j.j.",
"j.j.j.j.j.V M M Z M Z M J J J J K K K K P n  .q.6.9.9.6.2.0.0.0.0.0.0.0.0.q.0.0.q.w.w.w.e.0.X.] X.X.X.=.X.;.:.:.:.:.-.j.j.j.j.j.",
"j.j.j.j.n M n Z G G G G J G J J K J J P b ( h.h.h.h.h.h.h.h.h.h.h.h.h.h.h.h.h.h.h.h.h.h.h.h.y.R ;.X.X.X.*.*.X.*.*.=.:.:.j.j.j.j.",
"j.j.j.j.n n n M n G n G G G G J G K J Y 0 q.h.h.h.h.h.h.h.h.h.h.h.h.h.h.h.h.h.h.h.h.h.h.h.h.u.< X.X.X.X.X.X.*.*.*.*.:.:.j.j.j.j.",
"j.j.j.n n n n Z n G M G G G G J J J K J x i.h.h.h.h.h.h.h.h.h.h.h.h.h.h.h.h.h.h.h.h.h.h.h.h.,.  V ;.X.X.X.X.X.*.*.*.=.:.:.j.j.j.",
"j.j.j.n l n n n M n Z M G G G G G J J n M f.h.h.h.h.h.h.h.h.h.h.h.h.h.h.h.h.h.h.h.h.h.h.h.h.F o i X.X.X.X.X.X.X.X.*.*.=.:.j.j.j.",
"j.j.k j n n n n n n n Z G M G G G G K x | h.h.h.h.h.h.h.h.h.h.h.h.h.h.h.h.h.h.h.h.h.h.h.h.g.e 1 A *.X.[ X.X.X.X.X.;.X.:.=.#.j.j.",
"j.j.k k l l b n n n n G n Z G M G G J : r.h.h.h.h.h.h.h.h.h.h.h.h.h.h.h.h.h.h.h.h.h.h.h.h.4.o 4 U *.[ [ [ X.X.X.*.X.X.*.X.:.j.j.",
"j.j k k l l l l n n n G Z M G G G G G Z { ! Q Q Q Q Q Q Q Q Q Q Q Q Q Q Q Q Q Q Q Q Q ! Q 3 e r ` [ [ [ [ [ X.X.X.X.X.:.X.=.o.j.",
"j.h k k l l l l n n n n n n n G G G G J b 9 o o o o o o o o o o o o o o o o o . o o o o . 3 3 i [ [ [ [ [ X.X.[ X.X.X.X.=.#.:.j.",
"j.h k k k k k k v l n n n n Z M Z Z G G G L A V Z Z Z Z Z Z A A Z A A A J J S A S S S K S S K ` ] ` ` ] ` X.X.] X.X.X.X.X.X.=.j.",
"j.g h h k h k k l n n n n n n Z G M G G G J L P P P Y P ) ) W ) ) Y ( ) _ _ ` ` ' [ ] [ [ [ [ ' ` ` X.` ] ] ` X.[ X.X.X.X.X.X.j.",
"j.t h k k k j k k k k n n n n n n G Z 0 : 0 0 0 d d d d z z z n Y L Y K E E W E W W W _ _ _ _ _ ` ` ` X.` X.` X.X.X.X.X.X.X.#.j.",
"g q h h k f k k b k n l n n n n Z n b +.1.<.<.<.<.<.1.1.1.1.2.( M Y Y Y Y E E W W W W W _ _ ` ` ` ` ` ` ` ` ` X.] [ ] X.X.X.o.&.",
"f f h f k h b h k k l l l n n n n f n h.h.h.h.h.h.h.h.h.h.h.h.g.K B K E K Y Y E W Y W W W _ _ _ ( ` ` ` ` ] ] ` ] X.X.X.X.X.X.X.",
"f f h f h h g k h j k k k n n n n : { h.h.h.h.h.h.h.h.h.h.h.h.h.D q W K Y Y E K Y Y W W W W _ ` _ _ ` ` ` ` ` X.] ] ` ] X.X.X.X.",
"f f f f f f k k h k h k k v l l M = 0.h.h.h.h.h.h.h.h.h.h.h.h.a.1 3 J E K Y Y K Y Y Y W W _ W _ _ _ _ ` ` ` ] ` ` ] ] X.` X.X.X.",
"f q g f f k f f h k k k k k l n n - i.h.h.h.h.h.h.h.h.h.h.h.h.t.o 5 Z E K Y K E Y E Y W W W W _ _ _ _ _ ` ` ` ` ] ] ` X.] X.` X.",
"8 q f f f h h h h h f k k k l l f k g.h.h.h.h.h.h.h.h.h.h.h.h.>.X r J P L K P P P E E W Y W W W W _ _ ` _ ` ` ` ` ` ` [ [ [ *.[ ",
"g 8 f 8 f f f f h h k k k k k l = } h.h.h.h.h.h.h.h.h.h.h.h.g.y 1 V P L K P K P P P K E E W W W W _ _ W _ ` ` ` ` ` ] [ ` [ [ [ ",
"8 8 f f f f g f f g k h h k k l d I / ~ ~ ~ ^ ~ ~ ~ ~ ~ ~ / C 2 5 V P J K K P K P P P P E Y E Y W W W _ ` _ _ ` ` ` ] ] ` [ [ [ ",
"8 s 8 8 f f f f h h f k f h h k n f * o o o o o o o o o o X 1 u 5 Z K J K K K L K P P P Y E Y Y W W W W W _ _ _ ` ` ` ` ` ` [ [ ",
"8 8 8 8 f 8 f f q f h k h k k k k k n l j j j v v j V V n V V j Z L J J J K J K K P K P P P Y E W W W W W ` ` ` _ ` ` ` ` ` ] ..",
"j.8 8 8 8 f f f f f f f f k h h l l l l b M M M M G M G G G L L J G J J J K K P P Y P P P P P E Y W W W W W W _ ` _ ` ` ` [ ] j.",
"j.8 8 8 8 8 8 f f f f h h f k k ; % = = = = = - - ; : ; : : : 0 0 0 0 d d z d z z x K Y P P P E Y Y Y W W W ` _ _ _ ` _ ` ` ` j.",
"j.7 7 8 8 8 f 8 q t f f f f h 7 I $.} +.+.+.+.+.+.+.@.@.@.$.$.$.$.$.%.$.%.%.%.%.1.+.m K K P P Y E Y Y W W W W W _ _ _ _ ` ` ] j.",
"j.7 7 7 8 8 8 8 8 f f f f g 8 - d.h.h.h.h.h.h.h.h.h.h.h.h.h.h.h.h.h.h.h.h.h.h.h.h.h.2.x L P P P P P Y Y W W W W W W _ ` ` _ ` j.",
"j.7 7 8 8 8 8 8 s 8 f f f f > n h.h.h.h.h.h.h.h.h.h.h.h.h.h.h.h.h.h.h.h.h.h.h.h.h.h.5.& ) K P K P P P Y P Y W W W _ W _ _ ` ` j.",
"j.j.7 7 8 7 8 8 8 f 8 f f f # { h.h.h.h.h.h.h.h.h.h.h.h.h.h.h.h.h.h.h.h.h.h.h.h.h.h.! . V E K P P P P Y Y W Y W W W _ _ W ` j.j.",
"j.j.7 6 7 8 7 7 8 8 8 s f f @ 8.h.h.h.h.h.h.h.h.h.h.h.h.h.h.h.h.h.h.h.h.h.h.h.h.h.g.i 1 i L K P K P P P P E E W W W W _ _ _ j.j.",
"j.j.j.7 7 7 8 7 8 8 8 8 f 7 - s.h.h.h.h.h.h.h.h.h.h.h.h.h.h.h.h.h.h.h.h.h.h.h.h.h.p.< 3 V P K K K K P P P U E E E W W W _ j.j.j.",
"j.j.j.6 6 7 7 8 7 8 8 8 f 7 $ i.h.h.h.h.h.h.h.h.h.h.h.h.h.h.h.h.h.h.h.h.h.h.h.h.h.,.o u G K K K K P P P P P E E E W W W W j.j.j.",
"j.j.j.j.6 7 7 7 8 8 7 8 8 s ; s ^ / ^ ^ ^ ^ ^ ^ ^ ^ ^ ^ ^ ^ ^ ^ ^ ^ ^ ^ ^ ^ ^ / ! 3 e y J J J J K K S P P P P Y E W W W j.j.j.j.",
"j.j.j.j., 7 7 7 , 8 7 8 8 8 s , # O O O o O O o o O o O o o o o o o o o o o o o o w 5 i L J J J K K K K K P P P P P E W j.j.j.j.",
"j.j.j.j.j.7 6 7 7 7 7 8 8 8 8 8 f f t g j t h j j j g j j j j j j j j j v v l V V n v G J J G G K J K K K P K P P P L j.j.j.j.j.",
"j.j.j.j.j., 7 6 7 7 7 8 7 8 8 8 8 f s s f f f f f h k k h k k b n n M n M M G M G M G G G G G L J K J K K P P P P P Y j.j.j.j.j.",
"j.j.j.j.j.j., 6 7 7 7 7 7 8 8 8 8 8 8 f f f f h f h f k h k k k k l n n l n n V M M Z G G G G J J J J K K K P K P P j.j.j.j.j.j.",
"j.j.j.j.j.j.j.a > 7 , 7 7 7 7 8 8 8 8 8 s f f f h f h f k f k k k k l l l n n n n Z M G Z G G G M J J L J K J P U j.j.j.j.j.j.j.",
"j.j.j.j.j.j.j.p 7 6 6 7 7 7 8 7 8 8 8 8 f 8 f g f h f h k h h k k k k l n n l n M n M Z M Z G G J Z J K G K K K U j.j.j.j.j.j.j.",
"j.j.j.j.j.j.j.j.; , 7 6 7 7 7 7 7 8 8 8 8 f 8 q f f f h h h h k k k k k l l n n n n n n G G G G M J M J L K J K j.j.j.j.j.j.j.j.",
"j.j.j.j.j.j.j.j.j., > 6 > 7 7 8 8 7 8 8 8 8 8 f f f f h f f k h h h k k k l b l n n n Z M n M G Z Z J J J J J j.j.j.j.j.j.j.j.j.",
"j.j.j.j.j.j.j.j.j.j.> > > 7 7 7 7 8 8 8 8 8 8 8 f f f f f h h h h k k k k l l n n n n n n Z n G J M J Z Z J j.j.j.j.j.j.j.j.j.j.",
"j.j.j.j.j.j.j.j.j.j.j.> , > 6 7 7 7 8 8 8 8 8 8 8 f f f f f f h h k j k k k k b n l n n n n n G G G G G G j.j.j.j.j.j.j.j.j.j.j.",
"j.j.j.j.j.j.j.j.j.j.j.j.j.6 , 7 , 7 7 7 7 8 8 8 8 f 8 f f f h h f f h k h k k k l l n n n n n Z n Z G j.j.j.j.j.j.j.j.j.j.j.j.j.",
"j.j.j.j.j.j.j.j.j.j.j.j.j.j., 6 7 7 7 7 7 7 8 8 8 f 8 f f f f f h h h h h k k k b j k n l n Z n Z M j.j.j.j.j.j.j.j.j.j.j.j.j.j.",
"j.j.j.j.j.j.j.j.j.j.j.j.j.j.j.j.> 7 7 7 7 8 8 7 8 8 8 f f f f f f h h h h h h j k k n n l n n n j.j.j.j.j.j.j.j.j.j.j.j.j.j.j.j.",
"j.j.j.j.j.j.j.j.j.j.j.j.j.j.j.j.j.j.6 7 8 7 7 8 8 8 8 8 g 8 f g f f h h h h k k k k k k n n j.j.j.j.j.j.j.j.j.j.j.j.j.j.j.j.j.j.",
"j.j.j.j.j.j.j.j.j.j.j.j.j.j.j.j.j.j.j.j., 7 7 7 8 8 8 8 8 f f q f f h g h h h h k l k l j.j.j.j.j.j.j.j.j.j.j.j.j.j.j.j.j.j.j.j.",
"j.j.j.j.j.j.j.j.j.j.j.j.j.j.j.j.j.j.j.j.j.j.7 7 7 8 8 8 8 8 8 f f f f h f h g k k f j.j.j.j.j.j.j.j.j.j.j.j.j.j.j.j.j.j.j.j.j.j.",
"j.j.j.j.j.j.j.j.j.j.j.j.j.j.j.j.j.j.j.j.j.j.j.j.j.j.7 8 8 8 8 8 q f f f f f j.j.j.j.j.j.j.j.j.j.j.j.j.j.j.j.j.j.j.j.j.j.j.j.j.j."
};
