/* XPM */
static char *bab29e33bb0b4d699025c6cbe26a64ac[] = {
/* columns rows colors chars-per-pixel */
"16 16 178 2 ",
"   c #106AAD",
".  c #1571AE",
"X  c #1772AE",
"o  c #166BB0",
"O  c #176EB1",
"+  c #1674B5",
"@  c #1A70B3",
"#  c #1D72B5",
"$  c #1E7AB6",
"%  c #2177AF",
"&  c #2273B0",
"*  c #2071B3",
"=  c #2074B7",
"-  c #227AB2",
";  c #2779B1",
":  c #257BB0",
">  c #2579B2",
",  c #2478B3",
"<  c #247AB2",
"1  c #267BB4",
"2  c #297BB4",
"3  c #287BB5",
"4  c #287CB4",
"5  c #297CB4",
"6  c #297DB4",
"7  c #2C7FB6",
"8  c #2C7EB7",
"9  c #2C7FB7",
"0  c #2573B8",
"q  c #257BBD",
"w  c #357FBD",
"e  c #2980B6",
"r  c #2D83B8",
"t  c #2F82B8",
"y  c #2F82B9",
"u  c #2E80BF",
"i  c #3082B9",
"p  c #3284BB",
"a  c #3384BB",
"s  c #3385BB",
"d  c #3086BB",
"f  c #3081BE",
"g  c #3681BD",
"h  c #3386BC",
"j  c #3485BC",
"k  c #3687BD",
"l  c #3687BE",
"z  c #328ABC",
"x  c #3688BD",
"c  c #3488BE",
"v  c #3989BF",
"b  c #398ABF",
"n  c #3C89BF",
"m  c #2983C0",
"M  c #2D80C1",
"N  c #3083C2",
"B  c #3282C3",
"V  c #3B85C0",
"C  c #3A84C1",
"Z  c #338FC7",
"A  c #3A88C0",
"S  c #3C8BC2",
"D  c #388CC0",
"F  c #3C8CC2",
"G  c #3D8DC2",
"H  c #3D8FC3",
"J  c #3C88C4",
"K  c #388DC4",
"L  c #3E8EC4",
"P  c #3B8CCC",
"I  c #3E90C4",
"U  c #3E90C5",
"Y  c #408CC4",
"T  c #408FC5",
"R  c #418FCC",
"E  c #4790C0",
"W  c #4191C5",
"Q  c #4191C6",
"!  c #4391C7",
"~  c #4392C7",
"^  c #4991C2",
"/  c #4493CA",
"(  c #4294CA",
")  c #4795C8",
"_  c #4794C9",
"`  c #4795C9",
"'  c #4796CA",
"]  c #4391CC",
"[  c #4195CD",
"{  c #4A90C8",
"}  c #4997C9",
"|  c #4897CE",
" . c #4198CD",
".. c #4A98CC",
"X. c #4B9BCD",
"o. c #4B9ACE",
"O. c #4D99CD",
"+. c #4D9ACE",
"@. c #4D9CCE",
"#. c #509BCE",
"$. c #519CCE",
"%. c #599ECD",
"&. c #4598D0",
"*. c #499BD2",
"=. c #4F9BD0",
"-. c #4C9ED5",
";. c #509CD0",
":. c #519CD0",
">. c #519DD0",
",. c #519DD1",
"<. c #539FD1",
"1. c #549FD2",
"2. c #559FD2",
"3. c #549FD3",
"4. c #739ACD",
"5. c #769BCC",
"6. c #52A2D3",
"7. c #57A4D1",
"8. c #50A1D7",
"9. c #57A2D4",
"0. c #55A4D5",
"q. c #56A4D5",
"w. c #5BA3D1",
"e. c #5EA3D1",
"r. c #58A2D5",
"t. c #5AA5D7",
"y. c #5BA5D7",
"u. c #5BA6D7",
"i. c #5BA5D9",
"p. c #59A7DB",
"a. c #5EA7D9",
"s. c #5EA8D9",
"d. c #5FA8D9",
"f. c #5EA8DA",
"g. c #6BA3CF",
"h. c #68AAD6",
"j. c #61AADA",
"k. c #61ABDC",
"l. c #62AADC",
"z. c #65ADDD",
"x. c #65ADDE",
"c. c #64AEDE",
"v. c #65AFDF",
"b. c #6AACD8",
"n. c #6DAEDA",
"m. c #68AEDF",
"M. c #65B0DF",
"N. c #6FB0DC",
"B. c #73B3DE",
"V. c #67AFE2",
"C. c #66B0E0",
"Z. c #67B0E0",
"A. c #67B4E4",
"S. c #68B0E0",
"D. c #69B0E0",
"F. c #6BB1E1",
"G. c #6AB3E2",
"H. c #6CB3E3",
"J. c #73B6E1",
"K. c #8DAAD5",
"L. c #87B9DA",
"P. c #94BADC",
"I. c #A9C1E0",
"U. c #ABC3E1",
"Y. c #ABC3E2",
"T. c #B9CAE4",
"R. c #BACCE6",
"E. c #BBCDE6",
"W. c #BFCFE8",
"Q. c #BFD0E8",
"!. c #C0D0E8",
"~. c #C1D0E9",
"^. c #C0D3E9",
"/. c #C1D3EA",
"(. c #CBDAED",
"). c #CEE5F2",
"_. c gray100",
"`. c None",
/* pixels */
"`.`.`.`.`.0.u.a.l.c.S.`.`.`.`.`.",
"`.`.`.=.,.2.r.u.s.l.c.D.A.`.`.`.",
"`.`.) ..$.| [ &.*.-.8.p.D.H.`.`.",
"`.U ~ ) / #.h.h.n.N.B.J.C.D.D.`.",
"`.G L Q m )._._._._._.(.P M.M.`.",
"z A G L K P.U.U.T.E.T.5.] V.c.S.",
"s l b G Q Y C J N M B ~ j.a.l.c.",
"y p l + L._._._.{  .6.9.r.p.a.l.",
"9 t j $ g.U.U.K.0 Z [ 6.2.9.u.a.",
"2 9 i p n g g C %.e.e...#.2.9.p.",
"> 2 . ^ _._._._._._./.q @.,.2.9.",
"`.> . E /./.Q.Q.Q.W.4.u ..O.,.`.",
"`.& 2 -   o o @ # = f } ) ..O.`.",
"`.`.% > 4 e r z x D U Y Q ' `.`.",
"`.`.`.& > 5 9 i p x b S U `.`.`.",
"`.`.`.`.`.> 5 e i p x `.`.`.`.`."
};
