/* XPM */
static char *_b0e97064bf64b96f778353867456004[] = {
/* columns rows colors chars-per-pixel */
"32 32 100 2 ",
"   c #1358AC",
".  c #215DAD",
"X  c #0367AC",
"o  c #0966AF",
"O  c #0B6CAD",
"+  c #116FAE",
"@  c #0C69B1",
"#  c #146FB7",
"$  c #1A6EB1",
"%  c #1173B4",
"&  c #1E72B4",
"*  c #1C7AB5",
"=  c #1671B8",
"-  c #1F77BC",
";  c #1D7BBB",
":  c #2377AF",
">  c #237AAD",
",  c #2B63B2",
"<  c #3267B3",
"1  c #336DB6",
"2  c #396CB6",
"3  c #2175B3",
"4  c #267AB3",
"5  c #2B7EB6",
"6  c #2376B8",
"7  c #217DB8",
"8  c #2D7BBD",
"9  c #3570B8",
"0  c #3D7DBE",
"q  c #4A76B9",
"w  c #4C7CBE",
"e  c #337FC3",
"r  c #527EC1",
"t  c #2D81B7",
"y  c #2480BE",
"u  c #2E81B9",
"i  c #3385BB",
"p  c #3689BE",
"a  c #3889BF",
"s  c #2E86C2",
"d  c #3685C3",
"f  c #3887C6",
"g  c #348AC5",
"h  c #3C8CC2",
"j  c #368EC9",
"k  c #388FC8",
"l  c #3D92C4",
"z  c #3C92CC",
"x  c #4B86C0",
"c  c #418DC4",
"v  c #448EC9",
"b  c #4A8FC8",
"n  c #5281C1",
"m  c #578BC5",
"M  c #4291C6",
"N  c #4C91C7",
"B  c #4E9BC7",
"V  c #4594C9",
"C  c #4A96CB",
"Z  c #4D9ACD",
"A  c #5499C7",
"S  c #5795CA",
"D  c #539DCC",
"F  c #599ECE",
"G  c #4297D2",
"H  c #459AD2",
"J  c #4C9DD3",
"K  c #529DD1",
"L  c #659DCE",
"P  c #57A1CE",
"I  c #5DA0CE",
"U  c #4DA2D1",
"Y  c #56A1D3",
"T  c #5AA4D6",
"R  c #5BA8D5",
"E  c #5CA6D8",
"W  c #5EA8D9",
"Q  c #65AAD4",
"!  c #6AABD7",
"~  c #63ACDD",
"^  c #6DADD9",
"/  c #75ABD0",
"(  c #7FADD8",
")  c #6AB0DE",
"_  c #73B3DE",
"`  c #66AEE0",
"'  c #6CAFE2",
"]  c #66B2E1",
"[  c #6AB1E2",
"{  c #8FBFDF",
"}  c #9CB7DC",
"|  c #9FC6E1",
" . c #BED7EB",
".. c #CBD9EC",
"X. c #D9E4F1",
"o. c #D6E8F3",
"O. c #EAEDF6",
"+. c #F3F8FB",
"@. c #FFFFFF",
"#. c None",
/* pixels */
"#.#.#.#.#.#.#.#.#.#.#.#.E E E ~ ~ ~ ~ ` #.#.#.#.#.#.#.#.#.#.#.#.",
"#.#.#.#.#.#.#.#.#.Y Y Y Y E E ~ E ~ ~ ~ ` [ [ #.#.#.#.#.#.#.#.#.",
"#.#.#.#.#.#.#.K K K K Y Y E E E W W ~ ~ ~ ` [ [ [ #.#.#.#.#.#.#.",
"#.#.#.#.#.#.Z Z K K K K Y Y Y E E W W ~ ~ ~ ` ` [ [ #.#.#.#.#.#.",
"#.#.#.#.#.C C Z Z K K K Y Y Y E E E W ~ ~ ~ ` ~ [ [ [ #.#.#.#.#.",
"#.#.#.#.V V C C Z Z Z K K Y Y E T E W W W ~ ~ ` ~ [ [ [ #.#.#.#.",
"#.#.#.M V V V C C Z Z z j z z z G G G H J J J ` ` ` [ [ [ #.#.#.",
"#.#.l c M M V V C Z V I ! Q ! ! ^ ^ ^ _ ^ _ _ [ ~ ~ [ [ [ ] #.#.",
"#.#.l c c M M C C g D @.@.@.@.@.@.@.@.@.@.@.@.( H ` ~ ` [ [ #.#.",
"#.i h h l c M M V y { @.@.@.@.@.@.@.@.@.@.@.@.q d [ ~ ~ ~ [ ' #.",
"#.a h h c c c M M y  .@.@.@.@.@.@.@.@.@.@.@.X.. Z [ ~ ~ ~ ) [ #.",
"#.p p a a h l c M V S w w w w w w w w w w w < 1 ~ W E ~ ~ ` ~ #.",
"u p p a a h h c M h * # # = # 6 i d d f f f v E E E E ~ ~ ~ ~ ] ",
"i i p a a d a h h M F R R Q Q R U U Y Y E E R E T Y E E W ~ ~ ~ ",
"5 i i i p a a c % | @.@.@.@.@.@.b z Z Z K K K Y Y E E E W W ~ ~ ",
"u u u p i a a a ; o.@.@.@.@.@.O., M J Z K K K K Y Y T E E W E ~ ",
"5 u u i i p a 7 M @.@.@.@.@.@.}   C Z C Z Z K K Y Y Y E T E ~ ~ ",
"5 u 5 u u i i i c m r n n n r 2 0 Z C Z Z Z Z K K K Y Y Y E E E ",
"5 5 t u u i i a * X o o o @ @ * s s s s g Z Z Z K K Y Y Y Y Y E ",
"5 5 5 5 u u i t c A B B D D P P F F P I F Z Z Z J K K Y Y E Y E ",
"#.4 4 5 u u 4 5 +.@.@.@.@.@.@.@.@.@.@.@.@.L s Z Z Z K K Y Y E #.",
"#.4 4 5 5 u O A @.@.@.@.@.@.@.@.@.@.@.@.@.q 8 U Z Z J K K K Y #.",
"#.: 4 4 5 u X / @.@.@.@.@.@.@.@.@.@.@.@.... M Z C Z Z D K K Y #.",
"#.#.4 4 4 4 4 t x n n n n n n n n n r n 2 9 V V C C C Z K K #.#.",
"#.#.: 4 4 4 t 4 + $ $ $ & & * 6 6 6 6 4 i M V V V C C Z Z K #.#.",
"#.#.#.3 : 5 4 4 t t u i i i p p h l M c M M M M M V C C Z #.#.#.",
"#.#.#.#.> 4 5 4 5 5 5 u u i i i i p a a h l c M M V V N #.#.#.#.",
"#.#.#.#.#.: : 4 4 5 5 5 u u i i p p a d h h l c M b V #.#.#.#.#.",
"#.#.#.#.#.#.: 4 4 5 4 5 5 i u i u p p a h h h c M M #.#.#.#.#.#.",
"#.#.#.#.#.#.#.: : 4 4 5 5 5 5 u u p i p p h a h h #.#.#.#.#.#.#.",
"#.#.#.#.#.#.#.#.#.4 : 5 5 5 5 i i i i i p p h #.#.#.#.#.#.#.#.#.",
"#.#.#.#.#.#.#.#.#.#.#.#.5 5 5 5 5 5 u i #.#.#.#.#.#.#.#.#.#.#.#."
};
